<?xml version="1.0" standalone="no"?>
<!DOCTYPE svg PUBLIC "-//W3C//DTD SVG 1.1//EN" "http://www.w3.org/Graphics/SVG/1.1/DTD/svg11.dtd" >
<svg xmlns="http://www.w3.org/2000/svg">
<metadata>Generated by IcoMoon</metadata>
<defs>
<font id="icons" horiz-adv-x="1024">
<font-face units-per-em="1024" ascent="960" descent="-64" />
<missing-glyph horiz-adv-x="1024" />
<glyph unicode="&#x20;" horiz-adv-x="512" d="" />
<glyph unicode="&#xe900;" glyph-name="dumb" d="M604.046 686.106c6.172 0 12.090-2.453 16.456-6.817l122.75-122.75c9.088-9.090 9.088-23.824 0-32.912l-306.907-306.907c-9.088-9.088-23.824-9.088-32.912 0l-122.75 122.75c-9.088 9.088-9.088 23.824 0 32.912l306.907 306.907c4.364 4.364 10.284 6.817 16.456 6.817zM604.046 629.918l-273.994-273.992 89.837-89.837 273.992 273.994-89.835 89.835zM111.911 510.499c17.559 17.559 46.028 17.559 63.587 0l398.98-398.981c17.559-17.559 17.559-46.029 0-63.588l-61.386-61.386c-17.559-17.559-46.029-17.559-63.588 0l-398.98 398.981c-17.559 17.559-17.559 46.029 0 63.588l61.387 61.386zM143.704 476.467l-59.149-59.15 396.743-396.742 59.15 59.15-396.744 396.742zM111.911 326.333c17.559 17.557 46.028 17.557 63.587 0l214.858-214.858c17.559-17.559 17.559-46.029 0-63.586l-61.389-61.389c-17.559-17.559-46.026-17.559-63.586 0l-214.858 214.858c-17.559 17.557-17.559 46.026 0 63.586l61.387 61.389zM143.704 292.301l-59.149-59.15 212.619-212.62 59.15 59.15-212.62 212.62zM912.065 385.471c-17.557-17.559-46.026-17.559-63.586 0l-398.981 398.98c-17.559 17.559-17.559 46.028 0 63.587l61.386 61.387c17.559 17.559 46.029 17.559 63.588 0l398.981-398.98c17.559-17.559 17.559-46.029 0-63.588l-61.389-61.386zM880.272 419.5l59.15 59.15-396.744 396.743-59.148-59.149 396.742-396.744zM912.065 569.672c-17.557-17.559-46.026-17.559-63.586 0l-214.856 214.856c-17.559 17.559-17.559 46.028 0 63.587l61.386 61.387c17.559 17.559 46.029 17.559 63.588 0l214.856-214.856c17.559-17.559 17.559-46.029 0-63.588l-61.389-61.386zM880.272 603.704l59.15 59.148-212.62 212.62-59.15-59.149 212.62-212.618z" />
<glyph unicode="&#xe901;" glyph-name="map-pin" d="M938.667 533.333c0 117.803-47.787 224.555-124.971 301.696s-183.893 124.971-301.696 124.971-224.555-47.787-301.696-124.971-124.971-183.893-124.971-301.696c0-24.277 2.261-48.128 6.4-71.509 11.691-66.048 38.357-128.171 71.765-184.32 116.565-195.883 324.821-334.336 324.821-334.336 14.123-9.259 32.64-9.771 47.317 0 0 0 208.299 138.453 324.821 334.336 33.408 56.149 60.075 118.272 71.765 184.32 4.181 23.381 6.443 47.232 6.443 71.509zM853.333 533.333c0-18.944-1.749-37.845-5.077-56.661-9.429-53.333-31.445-105.728-61.099-155.563-81.579-137.131-214.869-245.205-271.744-287.573-59.648 39.083-195.755 148.352-278.613 287.573-29.653 49.835-51.669 102.229-61.099 155.563-3.285 18.816-5.035 37.717-5.035 56.661 0 94.251 38.144 179.541 99.968 241.365s147.115 99.968 241.365 99.968 179.541-38.144 241.365-99.968 99.968-147.115 99.968-241.365zM682.667 533.333c0 47.104-19.157 89.856-50.005 120.661s-73.557 50.005-120.661 50.005-89.856-19.157-120.661-50.005-50.005-73.557-50.005-120.661 19.157-89.856 50.005-120.661 73.557-50.005 120.661-50.005 89.856 19.157 120.661 50.005 50.005 73.557 50.005 120.661zM597.333 533.333c0-23.595-9.515-44.843-25.003-60.331s-36.736-25.003-60.331-25.003-44.843 9.515-60.331 25.003-25.003 36.736-25.003 60.331 9.515 44.843 25.003 60.331 36.736 25.003 60.331 25.003 44.843-9.515 60.331-25.003 25.003-36.736 25.003-60.331z" />
<glyph unicode="&#xe902;" glyph-name="mail" d="M128 622.037l359.552-251.691c14.507-10.027 33.92-10.496 48.939 0l359.509 251.691v-430.037c0-11.605-4.693-22.229-12.587-30.080s-18.475-12.587-30.080-12.587h-682.667c-11.605 0-22.229 4.693-30.080 12.587s-12.587 18.475-12.587 30.080zM42.667 704.725c0-0.427 0-0.853 0-1.28v-511.445c0-35.328 14.507-67.371 37.547-90.453s55.125-37.547 90.453-37.547h682.667c35.328 0 67.371 14.507 90.453 37.547s37.547 55.125 37.547 90.453v511.488c0 0.427 0 0.853 0 1.28-0.213 35.029-14.635 66.773-37.547 89.685-23.083 23.040-55.125 37.547-90.453 37.547h-682.667c-35.328 0-67.371-14.507-90.453-37.547-22.912-22.912-37.333-54.656-37.547-89.728zM891.477 723.029l-379.477-265.6-379.477 265.6c2.048 4.096 4.779 7.808 8.021 11.051 7.893 7.893 18.517 12.587 30.123 12.587h682.667c11.605 0 22.229-4.693 30.080-12.587 3.243-3.243 5.973-6.997 8.021-11.051z" />
<glyph unicode="&#xe903;" glyph-name="phone" d="M765.673-52.364c-52.596 0-107.985 12.567-165.236 36.771-55.855 23.738-112.175 56.32-167.098 95.884-54.458 40.029-107.055 84.713-156.858 133.585-49.338 49.804-94.022 102.4-133.585 156.393-40.029 55.855-72.145 111.709-94.953 165.702-24.204 57.716-36.305 113.571-36.305 166.167 0 36.305 6.516 70.749 19.084 102.865 13.033 33.047 33.978 63.767 62.371 90.298 35.84 35.375 76.8 53.062 120.553 53.062 18.153 0 36.771-4.189 52.596-11.636 18.153-8.378 33.513-20.945 44.684-37.702l107.985-152.204c9.775-13.498 17.222-26.531 22.342-39.564 6.051-13.964 9.309-27.927 9.309-41.425 0-17.687-5.12-34.909-14.895-51.2-6.982-12.567-17.687-26.065-31.185-39.564l-31.651-33.047c0.465-1.396 0.931-2.327 1.396-3.258 5.585-9.775 16.756-26.531 38.167-51.665 22.807-26.065 44.218-49.804 65.629-71.68 27.462-26.996 50.269-48.407 71.68-66.095 26.531-22.342 43.753-33.513 53.993-38.633l-0.931-2.327 33.978 33.513c14.429 14.429 28.393 25.135 41.891 32.116 25.6 15.825 58.182 18.618 90.764 5.12 12.102-5.12 25.135-12.102 39.098-21.876l154.531-109.847c17.222-11.636 29.789-26.531 37.236-44.218 6.982-17.687 10.24-33.978 10.24-50.269 0-22.342-5.12-44.684-14.895-65.629s-21.876-39.098-37.236-55.855c-26.531-29.324-55.389-50.269-88.902-63.767-32.116-13.033-67.025-20.015-103.796-20.015zM213.644 878.545c-25.6 0-49.338-11.171-72.145-33.513-21.411-20.015-36.305-41.891-45.615-65.629-9.775-24.204-14.429-49.804-14.429-77.265 0-43.287 10.24-90.298 30.72-138.705 20.945-49.338 50.269-100.538 87.505-151.738s79.593-101.004 126.138-148.015c46.545-46.080 96.815-88.902 148.48-126.604 50.269-36.771 101.935-66.56 153.135-87.971 79.593-33.978 154.065-41.891 215.505-16.291 23.738 9.775 44.684 24.669 63.767 46.080 10.705 11.636 19.084 24.204 26.065 39.098 5.585 11.636 8.378 23.738 8.378 35.84 0 7.447-1.396 14.895-5.12 23.273-1.396 2.793-4.189 7.913-13.033 13.964l-154.531 109.847c-9.309 6.516-17.687 11.171-25.6 14.429-10.24 4.189-14.429 8.378-30.255-1.396-9.309-4.655-17.687-11.636-26.996-20.945l-35.375-34.909c-18.153-17.687-46.080-21.876-67.491-13.964l-12.567 5.585c-19.084 10.24-41.425 26.065-66.095 47.011-22.342 19.084-46.545 41.425-75.869 70.284-22.807 23.273-45.615 47.942-69.353 75.404-21.876 25.6-37.702 47.476-47.476 65.629l-5.585 13.964c-2.793 10.705-3.724 16.756-3.724 23.273 0 16.756 6.051 31.651 17.687 43.287l34.909 36.305c9.309 9.309 16.291 18.153 20.945 26.065 3.724 6.051 5.12 11.171 5.12 15.825 0 3.724-1.396 9.309-3.724 14.895-3.258 7.447-8.378 15.825-14.895 24.669l-107.985 152.669c-4.655 6.516-10.24 11.171-17.222 14.429-7.447 3.258-15.36 5.12-23.273 5.12zM602.764 307.898l-7.447-31.651 12.567 32.582c-2.327 0.465-4.189 0-5.12-0.931z" />
<glyph unicode="&#xe904;" glyph-name="arrow" d="M512.019 922.075c-261.689 0-474.074-212.385-474.074-474.074s212.385-474.073 474.074-474.073c261.687 0 474.076 212.383 474.076 474.073s-212.389 474.074-474.076 474.074zM703.073 422.874l-142.224-142.224c-7.111-7.111-16.118-10.428-25.126-10.428s-18.014 3.317-25.126 10.428c-13.748 13.75-13.748 36.506 0 50.256l81.543 81.539h-246.047c-19.437 0-35.556 16.118-35.556 35.556s16.118 35.556 35.556 35.556h246.047l-81.543 81.541c-13.748 13.748-13.748 36.504 0 50.252s36.503 13.748 50.252 0l142.224-142.222c13.744-13.748 13.744-36.504 0-50.252z" />
<glyph unicode="&#xe905;" glyph-name="ban" d="M512-52.364c-276.015 0-500.364 224.349-500.364 500.364s224.349 500.364 500.364 500.364c276.015 0 500.364-224.349 500.364-500.364s-224.349-500.364-500.364-500.364zM512 878.545c-237.382 0-430.545-193.164-430.545-430.545s193.164-430.545 430.545-430.545c237.382 0 430.545 193.164 430.545 430.545s-193.164 430.545-430.545 430.545zM380.27 281.367c-8.844 0-17.687 3.258-24.669 10.24-13.498 13.498-13.498 35.84 0 49.338l263.449 263.448c13.498 13.498 35.84 13.498 49.338 0s13.498-35.84 0-49.338l-263.449-263.448c-6.516-6.982-15.825-10.24-24.669-10.24zM643.719 281.367c-8.844 0-17.687 3.258-24.669 10.24l-263.449 263.448c-13.498 13.498-13.498 35.84 0 49.338s35.84 13.498 49.338 0l263.449-263.448c13.498-13.498 13.498-35.84 0-49.338-6.982-6.982-15.825-10.24-24.669-10.24z" />
<glyph unicode="&#xe906;" glyph-name="basket" d="M267.688 102.783c36.105 0 65.486-29.328 65.486-65.434s-29.38-65.487-65.486-65.487c-36.105 0-65.435 29.381-65.435 65.487s29.329 65.434 65.435 65.434zM838.11 102.783c36.155 0 65.536-29.328 65.536-65.434s-29.381-65.487-65.536-65.487c-36.105 0-65.434 29.381-65.434 65.487s29.328 65.434 65.434 65.434zM51.47 959.525l105.181-18.204c16.94-2.984 29.835-17.041 31.301-34.234l11.884-141.641 44.189-0.019c7.211-0.003 14.345-0.006 21.404-0.009l81.126-0.039c6.467-0.003 12.861-0.006 19.184-0.010l89.577-0.049c5.624-0.003 11.184-0.007 16.68-0.010l62.771-0.040c4.972-0.003 9.883-0.007 14.73-0.010l55.209-0.041c4.361-0.003 8.658-0.007 12.902-0.010l48.136-0.041c3.789-0.003 7.517-0.007 11.196-0.011l31.638-0.031c3.356-0.003 6.66-0.007 9.914-0.010l36.64-0.042c2.86-0.004 5.666-0.007 8.431-0.011l30.936-0.043c2.397-0.003 4.752-0.007 7.062-0.011l19.661-0.033c2.063-0.004 4.081-0.007 6.061-0.011l21.902-0.044c1.676-0.004 3.315-0.008 4.915-0.011l13.479-0.034c1.396-0.004 2.757-0.008 4.088-0.011l14.45-0.046c1.081-0.004 2.135-0.008 3.163-0.012l8.484-0.035c0.861-0.004 1.699-0.008 2.511-0.011l8.583-0.047c0.622-0.004 1.225-0.008 1.805-0.012l4.676-0.035c0.463-0.004 0.906-0.008 1.331-0.012l3.368-0.036c0.326-0.004 0.633-0.008 0.929-0.012l2.291-0.036c0.216-0.004 0.421-0.008 0.614-0.012l1.449-0.037c0.133-0.004 0.254-0.008 0.372-0.012l1.051-0.050c0.064-0.004 0.121-0.008 0.178-0.013 0.493-0.046 0.565-0.054 0.637-0.063 28.168-4.096 52.945-18.811 69.837-41.466 16.888-22.604 23.969-50.467 19.922-78.38l-47.991-331.626c-9.049-63.109-63.863-110.691-127.579-110.691h-552.254c-66.598 0-122.981 51.981-128.392 118.481l-46.32 550.886-76.206 13.147c-20.682 3.641-34.487 23.211-30.948 43.893 3.641 20.682 23.615 34.133 43.842 30.897zM233.88 689.576l-27.672 0.017 30.492-362.672c2.225-27.913 25.031-48.849 52.894-48.849h552.051c26.343 0 48.849 19.619 52.592 45.663l48.037 331.674c1.115 7.889-0.857 15.777-5.662 22.149-4.756 6.422-11.734 10.568-19.623 11.681-0.364-0.014-1.236-0.027-2.594-0.038l-5.499-0.031c-1.149-0.005-2.416-0.009-3.793-0.013l-28.649-0.044c-2.416-0.002-4.927-0.003-7.536-0.005l-67.353 0.003c-3.758 0.002-7.589 0.003-11.488 0.005l-76.868 0.047c-4.604 0.003-9.262 0.007-13.964 0.010l-43.493 0.035c-4.953 0.004-9.948 0.008-14.973 0.013l-46.069 0.040c-5.203 0.005-10.433 0.009-15.682 0.014l-31.736 0.029c-5.325 0.005-10.665 0.010-16.016 0.015l-48.431 0.045c-5.397 0.005-10.801 0.010-16.206 0.015l-32.396 0.030c-5.389 0.005-10.775 0.010-16.153 0.015l-32.119 0.029c-5.329 0.005-10.639 0.009-15.932 0.014l-47.054 0.041c-5.155 0.004-10.281 0.009-15.376 0.013l-59.464 0.046c-4.799 0.003-9.554 0.006-14.263 0.009zM760.426 578.53c20.935 0 37.926-16.991 37.926-37.926s-16.991-37.926-37.926-37.926h-140.174c-20.984 0-37.926 16.991-37.926 37.926s16.942 37.926 37.926 37.926h140.174z" />
<glyph unicode="&#xe907;" glyph-name="wbody" d="M580.177 179.91c9.095-9.083 9.107-23.817 0.026-32.915-28.749-28.788-44.905-67.803-44.93-108.488 0-0.002 0 0.002 0 0v-56.157c0-12.854-10.419-23.273-23.273-23.273s-23.273 10.419-23.273 23.273v56.157c0.028 53.013 21.080 103.864 58.538 141.377 9.081 9.095 23.817 9.107 32.912 0.026zM443.806 179.91c9.095 9.081 23.831 9.069 32.912-0.026 37.457-37.513 58.51-88.353 58.538-141.366v-56.169c0-12.854-10.419-23.273-23.273-23.273s-23.273 10.419-23.273 23.273v56.145c-0.026 40.683-16.182 79.711-44.93 108.5-9.081 9.097-9.069 23.831 0.026 32.915zM245.886 451.382c4.722 11.955 18.243 17.815 30.196 13.091 151.573-59.897 320.254-59.897 471.824 0 11.955 4.724 25.474-1.136 30.199-13.091 4.722-11.953-1.138-25.472-13.091-30.196-162.565-64.24-343.475-64.24-506.038 0-11.955 4.724-17.815 18.243-13.091 30.196zM814.683 610.974c0 12.854 10.419 23.273 23.273 23.273h139.695c12.851 0 23.273-10.419 23.273-23.273s-10.422-23.273-23.273-23.273h-139.695c-12.854 0-23.273 10.419-23.273 23.273zM924.258 697.281c9.088-9.090 9.088-23.824 0-32.915l-53.39-53.39 53.39-53.39c9.088-9.090 9.088-23.824 0-32.915-9.088-9.088-23.824-9.088-32.912 0l-69.846 69.848c-9.090 9.088-9.090 23.824 0 32.912l69.846 69.848c9.088 9.088 23.824 9.088 32.912 0zM23.068 610.974c0 12.854 10.42 23.273 23.273 23.273h139.695c12.853 0 23.273-10.419 23.273-23.273s-10.419-23.273-23.273-23.273h-139.695c-12.853 0-23.273 10.419-23.273 23.273zM99.725 697.281c9.088 9.088 23.824 9.088 32.913 0l69.847-69.848c9.089-9.088 9.089-23.824 0-32.912l-69.847-69.848c-9.088-9.088-23.824-9.088-32.913 0-9.088 9.090-9.088 23.824 0 32.915l53.391 53.39-53.391 53.39c-9.088 9.090-9.088 23.824 0 32.915zM778.631 935.531c12.088-4.374 18.339-17.717 13.966-29.803l-27.953-77.239c-45.957-126.374-37.923-266.087 22.218-386.361 0.002-0.007 0.007-0.014 0.012-0.023 71.629-143.302 75.436-311.126 10.382-457.53-0.005-0.012-0.009-0.023-0.014-0.035l-5.101-11.548c-5.194-11.757-18.935-17.078-30.692-11.883s-17.078 18.935-11.885 30.692l5.143 11.641c59.422 133.706 55.95 286.976-9.467 417.853-65.862 131.705-74.664 284.695-24.343 423.084 0.002 0.006-0.002-0.006 0 0l27.932 77.188c4.375 12.086 17.718 18.338 29.803 13.964zM231.386 905.727l43.768 15.839 27.927-77.17c0.002-0.007-0.002 0.007 0 0 50.318-138.387 41.523-291.398-24.339-423.101-65.417-130.877-68.89-284.148-9.467-417.853l0.021-0.047 5.122-11.597-42.576-18.807-5.101 11.546c-0.005 0.012-0.010 0.023-0.015 0.033-65.055 146.406-61.247 314.231 10.383 457.535 60.148 120.278 68.187 260.001 22.228 386.383l-27.952 77.239zM279.682 758.446c0 12.853 10.419 23.273 23.273 23.273h418.060c12.851 0 23.273-10.42 23.273-23.273s-10.422-23.273-23.273-23.273h-418.060c-12.854 0-23.273 10.419-23.273 23.273z" />
<glyph unicode="&#xe908;" glyph-name="musclues" horiz-adv-x="975" d="M696.001 337.735c-0.002-0.005 0 0.002 0 0l-12.958-19.485c-7.456-11.213-22.589-14.258-33.802-6.8-11.213 7.456-14.258 22.589-6.802 33.802l12.995 19.541c60.782 91.121 175.024 130.297 278.93 95.651 12.776-4.259 19.678-18.066 15.419-30.839-4.259-12.776-18.066-19.678-30.842-15.419-83.046 27.689-174.358-3.628-222.939-76.451zM579.248 924.863c0.002-0.001 0 0.001 0 0l70.263-70.262c25.958-26.014 29.986-66.721 9.626-97.317l-55.879-83.862c-21.643-32.168-63.798-43.279-98.484-25.961l-35.384 17.691-52.265-260.63c-2.648-13.202-15.497-21.76-28.699-19.112s-21.758 15.497-19.11 28.699l58.539 291.913c1.492 7.448 6.373 13.775 13.197 17.111 6.827 3.336 14.816 3.3 21.611-0.098l63.89-31.946c12.754-6.368 28.25-2.294 36.225 9.516 0.007 0.015 0.017 0.027 0.024 0.039l55.737 83.655c7.5 11.266 6.022 26.254-3.528 35.84 0 0.001 0.002-0.001 0 0-0.005 0.005-0.012 0.013-0.017 0.018l-70.229 70.228c-23.654 23.661-61.452 25.384-87.159 3.97-162.723-135.59-284.418-313.866-351.415-514.802l-0.018-0.051-29.24-87.038c-0.005-0.015-0.010-0.029-0.014-0.044-11.204-33.836 0.975-71.027 30.027-91.682l0.047-0.034 74.684-53.367c137.369-98.143 315.26-119.574 472.007-56.861 11.774 4.71 25.193-0.39 30.864-11.732l52.782-105.565c6.022-12.044 1.141-26.69-10.903-32.712s-26.69-1.139-32.712 10.903l-42.957 85.914c-166.897-58.919-352.653-33.058-497.428 70.378l-74.64 53.336c-0.004 0.002 0.004-0.002 0 0-46.513 33.078-66.009 92.645-48.039 146.82l0.030 0.088 29.252 87.072c0.003 0.010 0.006 0.020 0.009 0.027 69.867 209.527 196.77 395.427 366.451 536.816 45.085 37.553 111.37 34.537 152.854-6.956zM332.529 404.87c104.080 69.366 239.655 69.366 343.737 0 11.203-7.468 14.234-22.604 6.766-33.809-7.468-11.203-22.604-14.234-33.809-6.766-87.703 58.451-201.947 58.451-289.651 0-11.205-7.468-26.344-4.437-33.812 6.766-7.465 11.205-4.437 26.341 6.768 33.809z" />
<glyph unicode="&#xe909;" glyph-name="clock" horiz-adv-x="922" d="M435.2 755.2c-212.077 0-384-171.922-384-384s171.923-384 384-384c212.078 0 384 171.922 384 384s-171.922 384-384 384zM0 371.2c0 240.353 194.846 435.2 435.2 435.2s435.2-194.847 435.2-435.2-194.847-435.2-435.2-435.2c-240.354 0-435.2 194.847-435.2 435.2zM254.495 588.298c64.545 53.619 149.762 75.405 232.12 59.343 13.878-2.708 22.932-16.151 20.227-30.029-2.706-13.875-16.151-22.932-30.026-20.227-67.274 13.123-136.883-4.675-189.604-48.471-52.72-43.799-82.975-108.964-82.41-177.503 0.117-14.139-11.25-25.695-25.388-25.81-14.138-0.118-25.694 11.249-25.81 25.388-0.692 83.909 36.348 163.686 100.892 217.308zM634.322 570.322c9.999-9.999 9.999-26.207 0-36.206l-126.715-126.715c-9.997-9.997-26.204-9.997-36.204 0-9.997 9.999-9.997 26.207 0 36.206l126.715 126.715c9.999 9.997 26.207 9.997 36.204 0zM435.2 422.4c-28.278 0-51.2-22.922-51.2-51.2s22.922-51.2 51.2-51.2c28.278 0 51.2 22.922 51.2 51.2s-22.922 51.2-51.2 51.2zM332.8 371.2c0 56.553 45.847 102.4 102.4 102.4s102.4-45.847 102.4-102.4c0-56.553-45.847-102.4-102.4-102.4s-102.4 45.847-102.4 102.4zM307.2 934.4c0 14.138 11.461 25.6 25.6 25.6h204.8c14.139 0 25.6-11.462 25.6-25.6s-11.461-25.6-25.6-25.6h-204.8c-14.139 0-25.6 11.462-25.6 25.6zM862.904 798.902c9.997-9.998 9.997-26.206 0-36.204l-119.808-119.808c-9.997-9.997-26.207-9.997-36.204 0-9.999 9.997-9.999 26.207 0 36.204l119.808 119.808c9.997 9.997 26.207 9.997 36.204 0zM775.498 850.102c9.997 9.997 26.207 9.997 36.204 0l102.4-102.4c9.997-9.998 9.997-26.206 0-36.204s-26.207-9.997-36.204 0l-102.4 102.4c-9.997 9.998-9.997 26.206 0 36.204z" />
<glyph unicode="&#xe90a;" glyph-name="cardio" d="M647.178-41.247h-273.067c-247.126 0-352.712 105.588-352.712 352.713v273.067c0 247.125 105.586 352.71 352.712 352.71h273.067c247.125 0 352.71-105.586 352.71-352.71v-273.067c0-247.125-105.131-352.713-352.71-352.713zM374.112 868.977c-209.807 0-284.445-74.638-284.445-284.444v-273.067c0-209.807 74.638-284.447 284.445-284.447h273.067c209.807 0 284.443 74.639 284.443 284.447v273.067c0 209.806-74.636 284.444-284.443 284.444h-273.067zM486.97 172.203c-10.923 0-37.321 4.096-52.794 43.691l-51.883 131.072c-7.281 18.661-33.222 35.953-52.793 35.953l-273.067-0.908c-18.66 0-34.133 15.019-34.133 34.133 0 18.657 15.019 34.133 34.133 34.133l273.522 0.908c47.788 0 98.76-34.587 116.509-79.189l41.414-104.673 93.754 237.568c14.107 35.499 39.141 40.503 49.606 41.414 10.469 0.454 35.956-1.819 53.705-35.499l47.329-89.658c8.192-15.473 32.768-30.491 50.517-30.491h184.777c18.657 0 34.133-15.473 34.133-34.133s-15.476-34.133-34.133-34.133h-184.777c-43.233 0-90.566 28.672-110.592 66.901l-35.499 67.355-95.573-240.753c-16.838-39.141-43.691-43.691-54.156-43.691z" />
<glyph unicode="&#xe90b;" glyph-name="big-dumb" horiz-adv-x="1434" d="M936.199 925.867c0 18.851 15.281 34.133 34.133 34.133 38.4 0 71.233-20.206 97.277-48.622 26.027-28.392 47.896-67.586 65.553-113.136 35.407-91.32 56.573-215.162 56.573-350.241s-21.166-258.922-56.569-350.242c-17.661-45.551-39.53-84.743-65.553-113.135-26.047-28.416-58.88-48.623-97.28-48.623-18.852 0-34.133 15.281-34.133 34.133s15.281 34.133 34.133 34.133c12.762 0 28.672 6.537 46.954 26.484 18.306 19.971 36.359 50.76 52.227 91.686 31.648 81.633 51.954 196.724 51.954 325.564s-20.306 243.931-51.954 325.564c-15.869 40.927-33.922 71.714-52.227 91.685-18.285 19.947-34.191 26.484-46.954 26.484-18.852 0-34.133 15.282-34.133 34.133zM1197.135 925.867c0 18.851 15.281 34.133 34.133 34.133 37.373 0 68.198-21.604 91.706-49.853 23.675-28.449 43.465-67.57 59.426-112.911 32.027-90.993 51.2-214.467 51.2-349.236s-19.173-258.243-51.2-349.235c-15.961-45.343-35.751-84.463-59.426-112.913-23.508-28.249-54.333-49.852-91.706-49.852-18.852 0-34.133 15.281-34.133 34.133s15.281 34.133 34.133 34.133c9.073 0 22.494 5.14 39.233 25.252 16.572 19.917 33.027 50.777 47.503 91.911 28.849 81.961 47.329 197.42 47.329 326.571s-18.48 244.609-47.329 326.57c-14.476 41.136-30.932 71.996-47.503 91.91-16.739 20.114-30.16 25.254-39.233 25.254-18.852 0-34.133 15.282-34.133 34.133zM936.199-29.867c0 18.852 15.281 34.133 34.133 34.133h260.932c18.852 0 34.133-15.281 34.133-34.133s-15.281-34.133-34.133-34.133h-260.932c-18.852 0-34.133 15.281-34.133 34.133zM936.199 925.867c0 18.851 15.281 34.133 34.133 34.133h260.932c18.852 0 34.133-15.282 34.133-34.133s-15.281-34.133-34.133-34.133h-260.932c-18.852 0-34.133 15.282-34.133 34.133zM412.068 925.867c0 18.851 15.281 34.133 34.133 34.133 37.373 0 68.198-21.604 91.706-49.853 23.675-28.449 43.465-67.57 59.426-112.911 32.027-90.993 51.2-214.467 51.2-349.236s-19.173-258.243-51.2-349.235c-15.961-45.343-35.751-84.463-59.426-112.913-23.508-28.249-54.333-49.852-91.706-49.852-18.852 0-34.133 15.281-34.133 34.133s15.281 34.133 34.133 34.133c9.073 0 22.494 5.14 39.233 25.252 16.572 19.917 33.024 50.777 47.503 91.911 28.849 81.961 47.329 197.42 47.329 326.571s-18.48 244.609-47.329 326.57c-14.479 41.136-30.932 71.996-47.503 91.91-16.739 20.114-30.16 25.254-39.233 25.254-18.852 0-34.133 15.282-34.133 34.133zM168.2-29.867c0 18.852 15.282 34.133 34.133 34.133h243.865c18.852 0 34.133-15.281 34.133-34.133s-15.281-34.133-34.133-34.133h-243.865c-18.851 0-34.133 15.281-34.133 34.133zM168.2 925.867c0 18.851 15.282 34.133 34.133 34.133h243.865c18.852 0 34.133-15.282 34.133-34.133s-15.281-34.133-34.133-34.133h-243.865c-18.851 0-34.133 15.282-34.133 34.133zM115.595 774.57c-28.849-81.961-47.329-197.42-47.329-326.57s18.48-244.61 47.329-326.571c14.479-41.134 30.933-71.994 47.504-91.907 16.738-20.115 30.161-25.255 39.235-25.255s22.496 5.14 39.235 25.255c16.572 19.913 33.025 50.773 47.504 91.907 28.849 81.961 47.329 197.42 47.329 326.571s-18.48 244.609-47.329 326.57c-14.479 41.136-30.933 71.996-47.504 91.91-16.738 20.114-30.161 25.254-39.235 25.254s-22.496-5.14-39.235-25.254c-16.572-19.914-33.025-50.774-47.504-91.91zM110.626 910.147c23.508 28.249 54.334 49.853 91.708 49.853s68.2-21.604 91.708-49.853c23.675-28.449 43.466-67.571 59.425-112.912 32.027-90.992 51.2-214.467 51.2-349.236s-19.173-258.243-51.2-349.235c-15.96-45.343-35.751-84.463-59.425-112.913-23.508-28.249-54.334-49.852-91.708-49.852s-68.2 21.603-91.708 49.852c-23.675 28.45-43.466 67.57-59.425 112.913-32.028 90.993-51.201 214.467-51.201 349.235s19.173 258.243 51.201 349.236c15.959 45.341 35.75 84.463 59.425 112.912zM921.6 493.513c0 10.766-3.475 18.664-6.356 22.357-0.113 0.143-0.218 0.273-0.321 0.396h-300.524v68.267h304.422c18.842 0 36.915-9.591 50.237-26.662s20.808-40.223 20.808-64.362v-91.020c0-24.139-7.485-47.292-20.808-64.362s-31.396-26.662-50.237-26.662h-304.422v68.267h300.524c0.102 0.123 0.208 0.253 0.321 0.396 2.881 3.693 6.356 11.592 6.356 22.357v91.027zM885.064 805.518c-29.43-61.247-51.842-149.468-61.088-252.77-1.683-18.773-18.265-32.635-37.041-30.952-18.777 1.679-32.635 18.265-30.956 37.041 9.725 108.622 33.529 205.438 67.553 276.247 16.992 35.366 37.27 65.782 60.979 87.781 23.904 22.178 52.886 37.134 85.825 37.134 18.852 0 34.133-15.282 34.133-34.133s-15.281-34.133-34.133-34.133c-11.028 0-24.197-4.812-39.393-18.911-15.384-14.276-31.147-36.643-45.879-67.305zM786.934 374.217c18.777 1.679 35.359-12.179 37.041-30.956 9.247-103.305 31.659-191.529 61.088-252.778 14.735-30.662 30.498-53.030 45.882-67.304 15.196-14.1 28.365-18.91 39.393-18.91 18.848 0 34.133-15.285 34.133-34.133 0-18.852-15.285-34.133-34.133-34.133-32.939 0-61.925 14.954-85.825 37.134-23.712 21.999-43.988 52.415-60.979 87.781-34.028 70.81-57.832 167.629-67.557 276.258-1.679 18.777 12.179 35.359 30.956 37.041z" />
<glyph unicode="&#xe90c;" glyph-name="date" d="M325.818 738.909c-19.084 0-34.909 15.825-34.909 34.909v139.636c0 19.084 15.825 34.909 34.909 34.909s34.909-15.825 34.909-34.909v-139.636c0-19.084-15.825-34.909-34.909-34.909zM698.182 738.909c-19.084 0-34.909 15.825-34.909 34.909v139.636c0 19.084 15.825 34.909 34.909 34.909s34.909-15.825 34.909-34.909v-139.636c0-19.084-15.825-34.909-34.909-34.909zM349.091 331.636c-6.051 0-12.102 1.396-17.687 3.724-6.051 2.327-10.705 5.585-15.36 9.775-8.378 8.844-13.498 20.48-13.498 33.047 0 6.051 1.396 12.102 3.724 17.687s5.585 10.705 9.775 15.36c4.655 4.189 9.309 7.447 15.36 9.775 16.756 6.982 37.702 3.258 50.735-9.775 8.378-8.844 13.498-20.945 13.498-33.047 0-2.793-0.465-6.051-0.931-9.309-0.465-2.793-1.396-5.585-2.793-8.378-0.931-2.793-2.327-5.585-4.189-8.378-1.396-2.327-3.724-4.655-5.585-6.982-8.844-8.378-20.945-13.498-33.047-13.498zM512 331.636c-6.051 0-12.102 1.396-17.687 3.724-6.051 2.327-10.705 5.585-15.36 9.775-8.378 8.844-13.498 20.48-13.498 33.047 0 6.051 1.396 12.102 3.724 17.687s5.585 10.705 9.775 15.36c4.655 4.189 9.309 7.447 15.36 9.775 16.756 7.447 37.702 3.258 50.735-9.775 8.378-8.844 13.498-20.945 13.498-33.047 0-2.793-0.465-6.051-0.931-9.309-0.465-2.793-1.396-5.585-2.793-8.378-0.931-2.793-2.327-5.585-4.189-8.378-1.396-2.327-3.724-4.655-5.585-6.982-8.844-8.378-20.945-13.498-33.047-13.498zM674.909 331.636c-6.051 0-12.102 1.396-17.687 3.724-6.051 2.327-10.705 5.585-15.36 9.775-1.862 2.327-3.724 4.655-5.585 6.982-1.862 2.793-3.258 5.585-4.189 8.378-1.396 2.793-2.327 5.585-2.793 8.378-0.465 3.258-0.931 6.516-0.931 9.309 0 12.102 5.12 24.204 13.498 33.047 4.655 4.189 9.309 7.447 15.36 9.775 17.222 7.447 37.702 3.258 50.735-9.775 8.378-8.844 13.498-20.945 13.498-33.047 0-2.793-0.465-6.051-0.931-9.309-0.465-2.793-1.396-5.585-2.793-8.378-0.931-2.793-2.327-5.585-4.189-8.378-1.396-2.327-3.724-4.655-5.585-6.982-8.844-8.378-20.945-13.498-33.047-13.498zM349.091 168.727c-6.051 0-12.102 1.396-17.687 3.724s-10.705 5.585-15.36 9.775c-8.378 8.844-13.498 20.945-13.498 33.047 0 6.051 1.396 12.102 3.724 17.687 2.327 6.051 5.585 11.171 9.775 15.36 17.222 17.222 48.873 17.222 66.095 0 8.378-8.844 13.498-20.945 13.498-33.047s-5.12-24.204-13.498-33.047c-8.844-8.378-20.945-13.498-33.047-13.498zM512 168.727c-12.102 0-24.204 5.12-33.047 13.498-8.378 8.844-13.498 20.945-13.498 33.047 0 6.051 1.396 12.102 3.724 17.687 2.327 6.051 5.585 11.171 9.775 15.36 17.222 17.222 48.873 17.222 66.095 0 4.189-4.189 7.447-9.309 9.775-15.36 2.327-5.585 3.724-11.636 3.724-17.687 0-12.102-5.12-24.204-13.498-33.047-8.844-8.378-20.945-13.498-33.047-13.498zM674.909 168.727c-12.102 0-24.204 5.12-33.047 13.498-4.189 4.189-7.447 9.309-9.775 15.36-2.327 5.585-3.724 11.636-3.724 17.687s1.396 12.102 3.724 17.687c2.327 6.051 5.585 11.171 9.775 15.36 10.705 10.705 26.996 15.825 41.891 12.567 3.258-0.465 6.051-1.396 8.844-2.793 2.793-0.931 5.585-2.327 8.378-4.189 2.327-1.396 4.655-3.724 6.982-5.585 8.378-8.844 13.498-20.945 13.498-33.047s-5.12-24.204-13.498-33.047c-8.844-8.378-20.945-13.498-33.047-13.498zM907.636 548.54h-791.273c-19.084 0-34.909 15.825-34.909 34.909s15.825 34.909 34.909 34.909h791.273c19.084 0 34.909-15.825 34.909-34.909s-15.825-34.909-34.909-34.909zM698.182-52.364h-372.364c-169.891 0-267.636 97.745-267.636 267.636v395.636c0 169.891 97.745 267.636 267.636 267.636h372.364c169.891 0 267.636-97.745 267.636-267.636v-395.636c0-169.891-97.745-267.636-267.636-267.636zM325.818 808.727c-133.12 0-197.818-64.698-197.818-197.818v-395.636c0-133.12 64.698-197.818 197.818-197.818h372.364c133.12 0 197.818 64.698 197.818 197.818v395.636c0 133.12-64.698 197.818-197.818 197.818h-372.364z" />
<glyph unicode="&#xe90d;" glyph-name="heart" horiz-adv-x="1170" d="M562.659 797.431c5.559-6.677 13.795-10.538 22.484-10.538 8.686 0 16.925 3.861 22.484 10.538 47.853 57.48 119.021 90.39 193.808 89.623v-0.001h0.301c165.148 0 280.997-156.728 280.997-307.632 0-157.681-98.605-300.33-214.774-405.522-57.634-52.189-118.357-93.986-170.631-122.587-26.141-14.304-49.807-25.108-69.609-32.262-20.389-7.37-34.611-10.102-42.578-10.102s-22.189 2.733-42.578 10.102c-19.801 7.153-43.467 17.958-69.609 32.262-52.274 28.602-112.997 70.399-170.631 122.587-116.17 105.191-214.774 247.84-214.774 405.522 0 150.904 115.849 307.632 280.998 307.632v-0.001l0.301 0.003c74.787 0.767 145.955-32.143 193.808-89.623zM585.143 859.102c-57.751 55.886-135.513 87.258-216.743 86.465-205.902-0.093-339.363-192.205-339.363-366.146 0-181.903 112.779-339.12 234.013-448.895 61.066-55.296 125.552-99.758 181.819-130.545 28.131-15.392 54.567-27.566 77.809-35.963 22.654-8.186 44.409-13.584 62.464-13.584s39.81 5.398 62.464 13.584c23.239 8.397 49.679 20.571 77.809 35.963 56.267 30.787 120.753 75.249 181.819 130.545 121.233 109.776 234.013 266.992 234.013 448.895 0 173.942-133.462 366.053-339.362 366.146-81.232 0.793-158.995-30.578-216.743-86.465zM714.351 552.114c11.431-11.419 11.44-29.945 0.018-41.375l-135.575-135.692c-5.486-5.494-12.932-8.578-20.697-8.578-7.762 0-15.208 3.084-20.697 8.575l-81.484 81.546c-11.422 11.428-11.416 29.953 0.015 41.375 11.428 11.422 29.953 11.413 41.375-0.015l60.788-60.834 114.881 114.981c11.422 11.431 29.945 11.44 41.375 0.018z" />
<glyph unicode="&#xe90e;" glyph-name="facebook" d="M798.726 796.16h-158.72c-20.48 0-46.080-5.12-46.080-40.96v-163.84h204.8v-163.84h-204.8v-491.52h-163.84v491.52h-204.8v163.84h204.8v143.36c0 148.48 71.68 225.28 209.92 225.28h158.72v-163.84z" />
<glyph unicode="&#xe90f;" glyph-name="bright-star" horiz-adv-x="999" d="M499.512 681.937c-9.998 0-19.126-5.674-23.55-14.641l-37.481-75.981c-11.099-22.498-32.558-38.093-57.384-41.702v0l-83.831-12.183c-9.888-1.439-18.105-8.364-21.194-17.868s-0.514-19.938 6.639-26.914v-0.002l60.671-59.18c0.002 0 0.002 0 0.002 0 17.95-17.508 26.137-42.726 21.899-67.439 0 0 0 0 0 0l-14.319-83.481c-1.688-9.85 2.36-19.806 10.445-25.682 8.085-5.874 18.804-6.651 27.65-2.001v0l74.997 39.417c22.196 11.666 48.712 11.666 70.908 0 0.002 0 0.002 0 0.002 0l74.997-39.412c8.846-4.65 19.566-3.874 27.65 2.001s12.133 15.83 10.445 25.68l-14.321 83.478c0 0 0 0 0 0-4.238 24.713 3.949 49.931 21.901 67.439l60.673 59.182c7.153 6.976 9.728 17.41 6.639 26.914s-11.306 16.429-21.197 17.868v0l-83.828 12.183c-24.826 3.609-46.287 19.204-57.384 41.702v0l-37.481 75.981c-4.423 8.966-13.554 14.641-23.55 14.641zM431.166 689.394c12.835 26.020 39.332 42.495 68.346 42.495s55.511-16.474 68.346-42.495l37.481-75.981c0 0 0 0 0 0 3.824-7.752 11.219-13.125 19.771-14.368 0.002 0 0.002 0 0.002 0l83.828-12.183c28.702-4.171 52.549-24.274 61.515-51.857s1.499-57.863-19.264-78.116l-60.676-59.18c-6.184-6.032-9.006-14.721-7.545-23.237l14.321-83.478c4.903-28.59-6.848-57.484-30.315-74.535-23.465-17.051-54.574-19.301-80.252-5.807l-74.997 39.412c-7.648 4.021-16.784 4.021-24.431 0v0l-74.997-39.417c-25.677-13.494-56.79-11.244-80.254 5.809-23.467 17.051-35.218 45.945-30.313 74.535 0 0 0 0 0 0l14.319 83.481c1.461 8.517-1.361 17.206-7.545 23.237v0l-60.673 59.18c-20.763 20.253-28.231 50.533-19.264 78.116s32.813 47.686 61.515 51.857l83.828 12.183c0 0 0 0 0 0 8.554 1.244 15.949 6.616 19.773 14.368 0 0 0 0 0 0l37.481 75.981zM974.456 602.324c4.263-13.12-2.915-27.211-16.034-31.472l-50.131-16.292c-13.12-4.263-27.208 2.917-31.472 16.034-4.263 13.12 2.915 27.208 16.034 31.472l50.134 16.292c13.117 4.261 27.208-2.917 31.469-16.034zM122.206 325.405c4.262-13.12-2.918-27.208-16.037-31.469l-50.136-16.287c-13.119-4.263-27.208 2.917-31.47 16.037-4.262 13.117 2.918 27.208 16.037 31.469l50.136 16.287c13.119 4.263 27.208-2.917 31.47-16.037zM499.512 51.165c13.794 0 24.976-11.182 24.976-24.976v-52.726c0-13.792-11.182-24.976-24.976-24.976s-24.976 11.184-24.976 24.976v52.726c0 13.794 11.182 24.976 24.976 24.976zM499.512 947.514c13.794 0 24.976-11.182 24.976-24.976v-52.727c0-13.794-11.182-24.976-24.976-24.976s-24.976 11.182-24.976 24.976v52.727c0 13.794 11.182 24.976 24.976 24.976zM732.522 127.296c11.159 8.107 26.779 5.632 34.886-5.527l30.957-42.616c8.107-11.159 5.634-26.779-5.527-34.886-11.159-8.107-26.779-5.632-34.886 5.527l-30.957 42.616c-8.107 11.159-5.632 26.779 5.527 34.886zM206.185 851.735c11.16 8.107 26.778 5.632 34.886-5.527l30.958-42.615c8.107-11.16 5.632-26.778-5.527-34.886s-26.779-5.632-34.886 5.527l-30.958 42.615c-8.107 11.16-5.632 26.778 5.527 34.886zM24.563 602.322c4.263 13.12 18.353 20.298 31.471 16.037l50.136-16.292c13.118-4.263 20.298-18.352 16.035-31.472-4.263-13.117-18.353-20.298-31.471-16.034l-50.136 16.292c-13.118 4.261-20.298 18.352-16.035 31.469zM876.819 325.407c4.261 13.117 18.352 20.298 31.472 16.034l50.136-16.289c13.117-4.263 20.298-18.355 16.034-31.472-4.263-13.12-18.352-20.298-31.472-16.037l-50.136 16.292c-13.117 4.263-20.298 18.352-16.034 31.472zM792.838 851.735c11.162-8.107 13.634-23.726 5.527-34.886l-30.957-42.615c-8.107-11.16-23.727-13.634-34.886-5.527s-13.634 23.726-5.527 34.886l30.957 42.615c8.107 11.16 23.727 13.634 34.886 5.527zM266.502 127.296c11.159-8.107 13.634-23.727 5.527-34.886l-30.958-42.616c-8.107-11.159-23.726-13.634-34.886-5.527s-13.634 23.727-5.527 34.886l30.958 42.616c8.107 11.159 23.727 13.634 34.886 5.527z" />
<glyph unicode="&#xe910;" glyph-name="inst" d="M511.996 867.622c136.631 0 152.869-0.512 206.848-2.926 49.887-2.341 77.023-10.679 95.089-17.701 23.845-9.289 40.887-20.334 58.807-38.254s28.965-34.962 38.254-58.88c7.022-17.993 15.36-45.129 17.627-95.086 2.487-53.906 2.926-70.071 2.926-206.775 0-136.631-0.439-152.869-2.926-206.848-2.267-49.885-10.606-77.021-17.554-95.087-9.362-23.845-20.48-40.887-38.327-58.807-16.523-16.991-36.645-30.062-58.88-38.254-18.066-7.022-45.129-15.36-95.089-17.627-53.906-2.487-70.071-2.926-206.775-2.926s-152.869 0.439-206.848 2.926c-49.883 2.267-76.946 10.606-95.086 17.554-22.219 8.221-42.314 21.321-58.807 38.327-16.99 16.523-30.062 36.645-38.254 58.88-7.022 18.066-15.36 45.129-17.627 95.087-2.487 53.906-2.926 70.144-2.926 206.775 0 136.704 0.439 152.869 2.926 206.848 2.267 49.883 10.606 76.946 17.554 95.086 9.362 23.845 20.48 40.887 38.327 58.807 17.92 17.92 34.962 28.965 58.88 38.254 17.993 7.022 45.129 15.36 95.086 17.627 53.906 2.487 70.071 2.926 206.775 2.926zM511.996 959.929c-138.971 0-156.453-0.585-211.017-3.072-54.491-2.56-91.794-11.264-124.27-23.918-34.166-12.843-65.118-32.987-90.697-59.027-26.012-25.585-46.131-56.537-58.953-90.697-12.654-32.402-21.358-69.705-23.845-124.123-2.487-54.565-3.072-72.046-3.072-211.090 0-138.971 0.585-156.453 3.072-211.017 2.487-54.493 11.191-91.723 23.845-124.271 13.019-33.646 30.574-62.171 59.026-90.697 28.453-28.379 56.978-45.934 90.697-58.953 32.475-12.654 69.705-21.358 124.197-23.845 54.565-2.487 71.973-3.072 211.017-3.072 138.971 0 156.453 0.585 211.017 3.072 54.495 2.487 91.725 11.191 124.273 23.845 34.165 12.844 65.112 32.987 90.697 59.026 26.010 25.585 46.131 56.539 58.953 90.697 12.654 32.475 21.358 69.705 23.845 124.198 2.487 54.565 3.072 72.046 3.072 211.017s-0.585 156.453-3.072 211.017c-2.487 54.491-11.191 91.721-23.845 124.27-12.844 34.166-32.987 65.119-59.026 90.697-25.593 26.013-56.539 46.131-90.697 58.953-32.402 12.654-69.705 21.358-124.127 23.845-54.565 2.487-72.119 3.072-211.090 3.072zM512.017 710.799c-69.7 0-136.545-27.688-185.83-76.973s-76.973-116.13-76.973-185.83c0-69.699 27.687-136.545 76.973-185.829s116.13-76.97 185.83-76.97c69.699 0 136.544 27.685 185.829 76.97 49.287 49.284 76.971 116.13 76.971 185.829s-27.685 136.545-76.971 185.83c-49.285 49.284-116.13 76.973-185.829 76.973zM512.017 277.354c-45.257 0-88.661 17.979-120.662 49.98s-49.98 75.405-49.98 120.662c0 45.257 17.978 88.661 49.98 120.662s75.405 49.98 120.662 49.98c45.257 0 88.66-17.979 120.662-49.98s49.98-75.405 49.98-120.662c0-45.257-17.979-88.661-49.98-120.662s-75.405-49.98-120.662-49.98zM846.643 721.185c0-16.295-6.473-31.922-17.993-43.445s-27.151-17.995-43.447-17.995c-16.296 0-31.92 6.473-43.44 17.995-11.525 11.522-17.998 27.15-17.998 43.445s6.473 31.922 17.998 43.445c11.52 11.522 27.143 17.995 43.44 17.995s31.927-6.473 43.447-17.995c11.52-11.522 17.993-27.15 17.993-43.445z" />
<glyph unicode="&#xe911;" glyph-name="linkedin" d="M225.28-58.873h-220.16v706.561h220.16v-706.561zM112.64 734.728c-66.56 0-112.64 46.080-112.64 107.52s46.080 107.52 117.76 107.52c71.68 0 112.64-46.080 112.64-107.52s-40.96-107.52-117.76-107.52zM1024-58.873h-220.16v389.121c0 92.16-30.72 153.6-112.64 153.6-61.44 0-97.28-40.96-112.64-81.92-5.12-15.36-5.12-35.84-5.12-56.32v-404.481h-220.16v481.281c0 87.040-5.12 158.72-5.12 225.28h189.44l10.24-97.28h5.12c30.72 46.080 97.28 112.64 215.040 112.64 143.36 0 250.88-97.28 250.88-302.080v-419.841h5.12z" />
<glyph unicode="&#xe912;" glyph-name="medal" d="M511.989-52.364c-27.927 0-55.389 6.516-77.731 19.084l-220.16 127.069c-91.229 61.44-97.28 72.611-97.28 168.96v230.865c0 96.349 6.051 107.52 95.418 167.564l222.487 128.465c44.218 25.6 110.778 25.6 154.998 0l220.16-127.069c91.229-61.44 97.28-72.611 97.28-168.96v-230.865c0-96.349-6.051-107.52-95.418-167.564l-222.487-128.465c-21.876-13.033-49.805-19.084-77.267-19.084zM511.989 738.909c-15.825 0-31.651-3.258-42.822-9.775l-220.16-127.069c-62.371-42.356-62.371-42.356-62.371-108.451v-230.865c0-66.095 0-66.095 64.698-109.847l218.298-125.673c22.342-13.033 62.836-13.033 85.178 0l220.161 127.069c62.371 42.356 62.371 42.356 62.371 108.451v230.865c0 66.095 0 66.095-64.698 109.847l-218.3 125.673c-10.705 6.516-26.531 9.775-42.356 9.775zM768 616.495c-19.084 0-34.909 15.825-34.909 34.909v122.415c0 73.542-31.185 104.727-104.727 104.727h-232.727c-73.542 0-104.727-31.185-104.727-104.727v-119.156c0-19.084-15.825-34.909-34.909-34.909s-34.909 15.36-34.909 34.909v119.156c0 112.64 61.905 174.545 174.545 174.545h232.727c112.64 0 174.545-61.905 174.545-174.545v-122.415c0-19.084-15.825-34.909-34.909-34.909zM587.878 185.949c-9.775 0-20.015 1.862-30.253 6.051l-45.615 17.687-45.615-18.153c-24.669-9.775-49.804-7.447-68.422 6.051s-28.393 36.771-26.996 63.302l2.793 48.873-31.185 37.702c-16.756 20.945-22.342 45.149-14.895 67.491 6.982 21.876 26.065 38.633 51.665 45.149l47.476 12.102 26.531 41.425c28.393 44.684 89.367 44.684 117.758 0l26.531-41.425 47.476-12.102c25.6-6.516 44.684-23.273 51.665-45.149s1.396-46.545-15.36-67.025l-31.185-37.702 2.793-48.873c1.396-26.531-8.378-49.338-26.996-63.302-11.171-7.913-24.204-12.102-38.167-12.102zM396.578 392.145l31.185-37.702c10.705-12.567 16.756-32.582 15.825-48.873l-2.793-48.873 45.615 18.153c15.36 6.051 35.84 6.051 51.2 0l45.613-18.153-2.793 48.873c-0.931 16.291 5.12 35.84 15.825 48.873l31.185 37.702-47.476 12.102c-15.825 4.189-32.58 16.291-41.424 29.789l-26.065 40.96-26.531-40.96c-8.844-13.964-25.6-26.065-41.425-30.255l-47.942-11.636z" />
<glyph unicode="&#xe913;" glyph-name="ok" d="M394.762 484.353c-9.641 9.641-22.717 15.057-36.352 15.057s-26.711-5.416-36.352-15.057c-9.641-9.641-15.058-22.717-15.058-36.352s5.416-26.712 15.058-36.353l153.6-153.6c4.784-4.746 10.458-8.499 16.696-11.049 6.238-2.545 12.918-3.84 19.657-3.799 7.009 0.22 13.896 1.884 20.239 4.879 6.339 2.99 12.001 7.255 16.625 12.529l358.4 409.601c8.274 10.274 12.262 23.347 11.136 36.491s-7.281 25.347-17.188 34.062c-9.902 8.715-22.789 13.272-35.968 12.718-13.184-0.553-25.641-6.173-34.78-15.687l-318.464-368.641-117.249 115.201zM972.79 499.2c-13.578 0-26.604-5.394-36.204-14.996s-14.996-22.625-14.996-36.204c0-108.631-43.151-212.818-119.967-289.633-76.815-76.81-181.002-119.967-289.633-119.967-80.891 0.036-159.961 24.023-227.237 68.941-67.277 44.913-119.749 108.739-150.799 183.434s-39.287 156.913-23.674 236.283c15.613 79.37 54.378 152.34 111.407 209.71 37.924 38.432 83.132 68.913 132.98 89.661s103.332 31.345 157.324 31.171c32.742-0.205 65.361-3.982 97.279-11.264 6.682-2.066 13.711-2.742 20.664-1.987s13.676 2.927 19.753 6.381c6.083 3.453 11.387 8.116 15.596 13.699s7.229 11.97 8.878 18.765c1.649 6.795 1.884 13.856 0.696 20.747s-3.773 13.465-7.598 19.318c-3.825 5.853-8.806 10.861-14.643 14.714s-12.396 6.471-19.282 7.691c-39.772 9.357-80.481 14.167-121.343 14.336-101.154-0.525-199.885-31.003-283.735-87.585s-149.060-136.735-187.401-230.343c-38.341-93.607-48.095-196.473-28.031-295.622 20.064-99.144 69.047-190.126 140.767-261.458 95.063-95.104 223.931-148.68 358.4-148.992 135.792 0 266.019 53.944 362.040 149.96 96.015 96.020 149.96 226.248 149.96 362.040 0 13.579-5.391 26.602-14.996 36.204-9.6 9.602-22.625 14.996-36.204 14.996z" />
<glyph unicode="&#xe914;" glyph-name="star" d="M775.452-48.64c-24.669 0-56.32 7.913-95.884 31.185l-139.171 82.385c-14.429 8.378-42.356 8.378-56.32 0l-139.635-82.385c-82.385-48.873-130.793-29.324-152.669-13.498-21.411 15.825-54.924 56.32-33.047 149.411l33.047 142.895c3.724 14.895-3.724 40.495-14.895 51.665l-115.433 115.433c-57.716 57.716-53.062 107.054-45.149 131.258s33.047 67.025 113.106 80.524l148.48 24.669c13.964 2.327 33.978 17.222 40.029 29.789l82.385 164.305c37.236 74.938 86.108 86.109 111.708 86.109s74.473-11.171 111.709-86.109l81.92-163.84c6.516-12.567 26.531-27.462 40.495-29.789l148.48-24.669c80.524-13.498 105.658-56.32 113.105-80.524s12.102-73.541-45.149-131.258l-115.433-115.898c-11.171-11.171-18.153-36.305-14.895-51.665l33.047-142.895c21.411-93.091-11.636-133.585-33.047-149.411-11.636-8.378-30.255-17.687-56.785-17.687zM512.005 141.265c22.807 0 45.615-5.585 63.767-16.291l139.171-82.385c40.495-24.204 66.095-24.204 75.869-17.222s16.756 31.651 6.516 77.265l-33.047 142.895c-8.844 38.633 5.585 88.436 33.513 116.829l115.433 115.433c22.807 22.807 33.047 45.149 28.393 60.509-5.12 15.36-26.531 27.927-58.182 33.047l-148.48 24.669c-35.84 6.051-74.938 34.909-91.229 67.491l-81.92 163.84c-14.895 29.789-33.513 47.476-49.804 47.476s-34.909-17.687-49.337-47.476l-82.385-163.84c-16.291-32.582-55.389-61.44-91.229-67.491l-148.015-24.669c-31.651-5.12-53.062-17.687-58.182-33.047s5.585-38.167 28.393-60.509l115.433-115.433c27.927-27.927 42.356-78.196 33.513-116.829l-33.047-142.895c-10.705-46.080-3.258-70.284 6.516-77.265s34.909-6.516 75.869 17.222l139.171 82.385c17.686 10.705 40.494 16.291 63.301 16.291z" />
<glyph unicode="&#xe915;" glyph-name="timer" d="M512-52.364c-243.898 0-442.182 198.284-442.182 442.182s198.284 442.182 442.182 442.182c243.898 0 442.182-198.284 442.182-442.182s-198.284-442.182-442.182-442.182zM512 762.182c-205.265 0-372.364-167.098-372.364-372.364s167.098-372.364 372.364-372.364c205.265 0 372.364 167.098 372.364 372.364s-167.098 372.364-372.364 372.364zM512 366.545c-19.084 0-34.909 15.825-34.909 34.909v232.727c0 19.084 15.825 34.909 34.909 34.909s34.909-15.825 34.909-34.909v-232.727c0-19.084-15.825-34.909-34.909-34.909zM651.636 878.545h-279.273c-19.084 0-34.909 15.825-34.909 34.909s15.825 34.909 34.909 34.909h279.273c19.084 0 34.909-15.825 34.909-34.909s-15.825-34.909-34.909-34.909z" />
<glyph unicode="&#xe916;" glyph-name="Twitter" d="M921.6 657.914v-25.6c0-276.48-209.92-599.041-599.040-599.041-117.76 0-230.4 35.84-322.56 92.16 15.36 0 35.84-5.12 51.2-5.12 97.28 0 189.44 35.841 261.12 92.161-92.16 0-168.96 61.44-194.56 143.36 15.36 0 25.6-5.12 40.96-5.12 20.48 0 40.96 0 56.32 5.12-97.28 20.48-163.84 102.4-163.84 204.8v5.12c0-15.36 56.32-25.6 92.16-25.6-56.32 35.84-97.28 102.4-97.28 174.080 0 40.96 10.24 76.8 30.72 107.52 102.4-128 256-209.92 435.2-220.16-10.24 20.48-15.36 35.84-15.36 51.2 0 117.76 92.16 209.92 209.92 209.92 61.44 0 112.64-25.6 153.6-66.56 46.080 10.24 92.16 25.6 133.12 51.2-15.36-51.2-51.2-92.16-92.16-117.76 40.96 5.12 81.92 15.36 122.88 30.72-30.72-35.84-61.44-71.68-102.4-102.4z" />
<glyph unicode="&#xe917;" glyph-name="video" d="M648.533-41.247h-273.067c-247.126 0-352.711 105.588-352.711 352.713v273.067c0 247.125 105.586 352.71 352.711 352.71h273.067c247.125 0 352.71-105.586 352.71-352.71v-273.067c0-247.125-105.585-352.713-352.71-352.713zM375.467 868.977c-209.807 0-284.445-74.638-284.445-284.444v-273.067c0-209.807 74.638-284.447 284.445-284.447h273.067c209.807 0 284.443 74.639 284.443 284.447v273.067c0 209.806-74.636 284.444-284.443 284.444h-273.067zM455.567 249.115c-19.115 0-36.864 4.553-52.794 13.653-36.41 20.937-57.344 63.717-57.344 117.876v134.711c0 53.705 20.934 96.939 57.344 117.875 36.41 20.935 83.739 17.749 130.618-9.557l116.961-67.358c46.421-26.849 73.274-66.444 73.274-108.315s-26.853-81.466-73.274-108.315l-116.961-67.359c-26.399-15.473-53.248-23.211-77.824-23.211zM456.021 578.618c-7.281 0-13.653-1.365-18.661-4.553-14.561-8.646-23.211-30.037-23.211-58.709v-134.711c0-28.672 8.192-50.063 23.211-58.709 14.565-8.649 37.321-5.007 62.351 9.557l116.965 67.355c25.030 14.565 39.137 32.314 39.137 49.152s-14.107 35.045-39.137 49.152l-116.965 67.355c-16.384 9.557-31.403 14.111-43.691 14.111z" />
<glyph unicode="&#xe918;" glyph-name="warning" d="M511.991-61.628c-281.126 0-509.63 228.5-509.63 509.628 0 281.126 228.504 509.63 509.63 509.63s509.631-228.504 509.631-509.63c0-281.128-228.506-509.628-509.631-509.628zM511.991 886.519c-241.778 0-438.519-196.741-438.519-438.518s196.741-438.517 438.519-438.517c241.776 0 438.52 196.739 438.52 438.517s-196.745 438.518-438.52 438.518zM512 365.039c-19.437 0-35.556 16.117-35.556 35.554v237.037c0 19.437 16.118 35.556 35.556 35.556s35.556-16.118 35.556-35.556v-237.037c0-19.438-16.118-35.554-35.556-35.554zM511.991 210.961c-6.163 0-12.326 1.422-18.015 3.794s-10.904 5.689-15.644 9.956c-4.267 4.739-7.585 9.483-9.956 15.644-2.371 5.689-3.793 11.85-3.793 18.017 0 6.161 1.422 12.322 3.793 18.011s5.689 10.906 9.956 15.644c4.741 4.267 9.956 7.589 15.644 9.956 11.378 4.745 24.652 4.745 36.029 0 5.689-2.367 10.904-5.689 15.644-9.956 4.267-4.739 7.586-9.956 9.956-15.644s3.793-11.85 3.793-18.011c0-6.167-1.422-12.328-3.793-18.017-2.37-6.161-5.689-10.906-9.956-15.644-4.741-4.267-9.956-7.583-15.644-9.956s-11.852-3.794-18.014-3.794z" />
<glyph unicode="&#xe91a;" glyph-name="youtube" d="M1002.569 696.092c-5.786 21.782-17.189 41.663-33.061 57.656-15.879 15.993-35.679 27.538-57.417 33.48-79.799 21.504-400.091 21.504-400.091 21.504s-320.219 0-400.091-21.504c-21.739-5.958-41.538-17.506-57.425-33.496s-27.308-35.863-33.126-57.64c-21.358-80.384-21.358-248.101-21.358-248.101s0-167.717 21.358-248.101c5.802-21.776 17.219-41.648 33.109-57.629s35.698-27.51 57.442-33.434c79.872-21.577 400.091-21.577 400.091-21.577s320.219 0 400.018 21.577c21.745 5.902 41.56 17.425 57.439 33.409s27.275 35.869 33.039 57.653c21.504 80.384 21.504 248.101 21.504 248.101s0 167.717-21.431 248.101zM407.259 295.708v304.567l267.703-152.283-267.703-152.283z" />
</font>
</defs>
</svg>
