<svg width="54" height="24" viewBox="0 0 54 24" fill="none" xmlns="http://www.w3.org/2000/svg">
<path fill-rule="evenodd" clip-rule="evenodd" d="M9.86689 3.0942C9.23401 3.90486 8.2214 4.54425 7.20878 4.45291C7.08221 3.35681 7.57796 2.1922 8.15811 1.47289C8.79099 0.639392 9.89854 0.0456709 10.7951 0C10.9006 1.14177 10.4892 2.26071 9.86689 3.0942ZM10.7845 4.66978C9.89238 4.61421 9.07839 4.96019 8.4209 5.23965C7.99779 5.41949 7.63949 5.57178 7.36691 5.57178C7.06101 5.57178 6.68792 5.41135 6.26903 5.23122C5.72014 4.99519 5.09261 4.72534 4.43455 4.73829C2.92617 4.76113 1.52328 5.68596 0.753273 7.15884C-0.828936 10.1046 0.341899 14.4662 1.87137 16.8639C2.62028 18.0513 3.51686 19.353 4.69825 19.3073C5.21799 19.2861 5.59185 19.1143 5.97877 18.9366C6.42422 18.732 6.88697 18.5195 7.60951 18.5195C8.30701 18.5195 8.74952 18.7265 9.1743 18.9252C9.5782 19.1141 9.96607 19.2956 10.5419 19.2845C11.7654 19.2616 12.5355 18.097 13.2844 16.9096C14.0926 15.6351 14.4477 14.3913 14.5016 14.2026L14.5079 14.1807C14.5067 14.1793 14.4967 14.1744 14.4791 14.1657C14.2089 14.0318 12.1439 13.0085 12.1241 10.2645C12.1042 7.96126 13.762 6.79431 14.0229 6.61061C14.0388 6.59943 14.0495 6.59189 14.0544 6.58796C12.9996 4.89814 11.3541 4.71546 10.7845 4.66978ZM19.2547 19.1589V1.35867H25.4253C28.6108 1.35867 30.8364 3.73355 30.8364 7.20453C30.8364 10.6755 28.5686 13.0732 25.3409 13.0732H21.8073V19.1589H19.2547ZM21.807 3.688H24.75C26.965 3.688 28.2308 4.96678 28.2308 7.21607C28.2308 9.46536 26.965 10.7556 24.7394 10.7556H21.807V3.688ZM39.2645 17.0237C38.5894 18.4167 37.1021 19.2958 35.4988 19.2958C33.1255 19.2958 31.4694 17.7659 31.4694 15.4595C31.4694 13.176 33.0727 11.8629 36.0367 11.6688L39.2223 11.4633V10.4814C39.2223 9.03132 38.3468 8.2435 36.7857 8.2435C35.4988 8.2435 34.56 8.96282 34.3701 10.0589H32.0707C32.1445 7.75254 34.1486 6.07414 36.8595 6.07414C39.7813 6.07414 41.68 7.72971 41.68 10.2987V19.1588H39.3172V17.0237H39.2645ZM36.1843 17.1837C34.8236 17.1837 33.9586 16.4758 33.9586 15.3911C33.9586 14.2722 34.7919 13.6214 36.3847 13.5186L39.2221 13.3245V14.3293C39.2221 15.9963 37.9142 17.1837 36.1843 17.1837ZM49.5171 19.8554C48.4939 22.9724 47.3231 24 44.8337 24C44.6439 24 44.011 23.9772 43.8633 23.9315V21.7964C44.0215 21.8192 44.4118 21.8421 44.6122 21.8421C45.7409 21.8421 46.3737 21.3283 46.764 19.9924L46.9961 19.2046L42.6714 6.24547H45.34L48.3462 16.7612H48.399L51.4052 6.24547H54L49.5171 19.8554Z" fill="#171725"/>
</svg>
