<svg width="114" height="28" viewBox="0 0 114 28" fill="none" xmlns="http://www.w3.org/2000/svg">
<g clip-path="url(#clip0_119_952)">
<path d="M39.9623 4.7757C40.3983 5.78992 40.6163 6.90358 40.7154 8.05752H37.5238C37.385 6.14893 36.3742 4.19952 34.511 3.40353C31.9145 2.34954 28.267 2.48822 26.0069 4.17911C24.7185 5.19332 24.1636 6.64505 24.3816 8.29564C24.5203 9.28997 25.1749 10.2451 26.1065 10.7223C27.1372 11.2792 28.3165 11.478 29.5063 11.5979V14.8593C26.6318 14.4212 23.3316 14.0837 21.9238 11.0405C20.6157 8.45526 21.2108 4.97457 23.0343 2.82681C25.4133 0.241552 28.8027 -0.0970446 32.2718 0.0222752C35.403 0.221142 38.6739 1.6535 39.9623 4.7757V4.7757ZM0 0.459781H19.5255V3.60187H0V0.459781ZM42.7173 0.459781H45.9679V27.2293H42.7173V0.459781ZM55.0078 0.480191C57.6538 0.480191 60.5383 1.85237 61.4698 4.55695C62.501 7.26206 62.2032 10.8422 60.1418 12.97C58.1593 15.0184 55.3254 14.9985 52.4905 14.9985H48.9024V11.8658H54.9285C56.2173 11.8658 57.6841 11.3781 58.3382 10.0258C58.913 8.57405 58.9526 6.48543 58.1593 5.11325C57.2475 3.82062 55.8204 3.60135 54.314 3.60135H48.9024V0.459781L55.0078 0.480191ZM63.2339 0.459781H66.4448V27.2293H63.2339V0.459781ZM78.4974 0.480191C80.9948 0.480191 83.5522 1.55407 84.7216 4.02054C85.9505 6.52625 85.7925 10.2252 84.0874 12.453C82.5612 14.4218 80.3011 14.9985 77.9623 14.9985H69.7361V11.8658H78.3983C79.6574 11.8658 81.1539 11.3582 81.808 10.0457C82.4621 8.33489 82.5414 5.7894 81.035 4.457C79.7268 3.48255 78.0713 3.60135 76.2577 3.60135H69.7361V0.459781L78.4974 0.480191ZM87.4773 0.459781H90.708V27.2293H87.4773V0.459781ZM92.3735 0.459781H114V3.60187H92.3735V0.459781ZM101.214 6.2672H104.445V27.2298H101.214V6.2672ZM0 11.8559H19.5255V14.9985H0V11.8559Z" fill="white"/>
<path d="M40.5376 16.0514C41.8457 18.5776 41.4884 22.2367 39.7244 24.4248C36.4936 28.2634 30.7644 28.7009 26.2646 27.189C23.3311 26.2742 20.6746 23.2515 20.4962 20.1287C20.4367 19.5923 20.3768 19.035 20.3569 18.498H23.727C23.7072 20.5861 24.2225 22.6151 26.106 23.7884C28.9007 25.5782 33.4798 25.797 36.2156 23.7089C37.8013 22.4759 38.3959 20.6259 38.0986 18.6576C37.94 17.3446 36.7701 16.1514 35.5417 15.7736C34.5705 15.4554 33.5393 15.2963 32.469 15.2167V11.9553C35.5422 12.3923 39.0307 12.8099 40.5376 16.0514ZM86.7439 27.2293H83.0963L77.1298 17.7224H80.8566L86.7439 27.2293ZM0 24.0872H19.5255V27.2293H0V24.0872Z" fill="white"/>
</g>
<defs>
<clipPath id="clip0_119_952">
<rect width="114" height="28" fill="white"/>
</clipPath>
</defs>
</svg>
