<svg width="150" height="32" viewBox="0 0 150 32" fill="none" xmlns="http://www.w3.org/2000/svg">
<path d="M53.7051 24.88H53.6361L49.4215 8.125H44.4656L40.2685 24.88H40.1995L36.2969 8.125H31.0811L37.6441 31.582H42.565L46.9006 15.5482H46.9871L51.3216 31.582H56.2785L62.8241 8.125H57.6087L53.7051 24.88ZM115.999 7.74646C109.782 7.74646 106.069 11.7506 106.069 18.469V21.3047C106.069 28.0927 109.765 31.9759 115.983 31.9759C122.218 31.9759 125.325 28.1952 125.325 23.9683V23.539H120.644C120.644 25.9613 119.435 27.852 116.067 27.852C112.683 27.852 111.024 25.7718 111.024 21.3047V18.469C111.024 14.053 112.7 11.8361 116.033 11.8361C119.159 11.8361 120.644 13.8983 120.644 16.2182H125.324V15.9775C125.325 11.4069 121.836 7.74646 115.999 7.74646ZM70.7168 8.125L63.1175 31.5815H68.0049L69.7115 25.6699H77.1687L78.8495 31.5815H84.0829L76.501 8.125H70.7168ZM70.7549 22.0617L73.4452 12.7468H73.4972L76.1458 22.0617H70.7549ZM145.047 8.125V17.5413H135.411V8.125H130.523V31.582H135.411V21.5802H145.047V31.582H149.953V8.125H145.047ZM83.9974 12.1803H91.0094V31.582H95.8798V12.1803H102.908V8.125H83.9974V12.1803Z" fill="white"/>
<path d="M19.5018 7.73057C16.8537 7.53643 14.6082 9.20271 13.3552 9.20271C12.0842 9.20271 10.1239 7.77257 8.04412 7.81047C5.31521 7.85248 2.79943 9.38968 1.39251 11.8238C-1.44296 16.7212 0.668713 23.9759 3.43005 27.9472C4.78086 29.8911 6.39113 32.0779 8.50743 31.9979C10.545 31.9186 11.3146 30.6856 13.7763 30.6856C16.2365 30.6856 16.931 31.9979 19.0848 31.9565C21.2763 31.918 22.6657 29.9777 24.0062 28.023C25.5583 25.7708 26.1956 23.5902 26.2337 23.4719C26.1848 23.455 21.9605 21.8394 21.9182 16.9973C21.8801 12.9502 25.2392 11.0027 25.3926 10.909C23.4853 8.11576 20.5391 7.8074 19.5018 7.73057ZM17.8674 5.10693C18.9917 3.75669 19.7489 1.87117 19.5404 0C17.9219 0.062492 15.9647 1.07312 14.8043 2.42285C13.7645 3.62044 12.8512 5.53669 13.0988 7.37303C14.9042 7.51133 16.7436 6.46024 17.8674 5.10693Z" fill="white"/>
</svg>
