<svg width="123" height="40" viewBox="0 0 123 40" fill="none" xmlns="http://www.w3.org/2000/svg">
<path fill-rule="evenodd" clip-rule="evenodd" d="M19.9994 9.51404C21.5226 7.68436 23.788 6.63678 26.1686 6.66118C31.4542 6.66118 35.0057 11.6299 35.0057 16.2568C35.0057 25.9292 22.964 33.339 19.9994 33.339C17.0348 33.339 4.99316 25.9292 4.99316 16.2568C4.99316 11.6299 8.54464 6.66118 13.8302 6.66118C16.2108 6.63678 18.4762 7.68436 19.9994 9.51404Z" stroke="#064BB4" stroke-width="2" stroke-linecap="round" stroke-linejoin="round"/>
<path d="M23.0908 17.624L19.2292 21.489L16.9082 19.1663" stroke="#064BB4" stroke-width="2" stroke-linecap="round" stroke-linejoin="round"/>
<path d="M58.22 23.78C58.22 22.2 57.34 21.06 55.74 20.5C57.02 19.84 57.76 18.78 57.76 17.46C57.76 15 55.9 13.64 52.88 13.64H47.48V28H53.1C56.26 28 58.22 26.44 58.22 23.78ZM52.64 16.04C54.12 16.04 54.88 16.68 54.88 17.7C54.88 18.74 54.12 19.38 52.64 19.38H50.24V16.04H52.64ZM52.86 21.8C54.5 21.8 55.36 22.52 55.36 23.66C55.36 24.88 54.5 25.6 52.86 25.6H50.24V21.8H52.86ZM67.9892 23.5C67.9892 24.94 67.0292 25.74 66.0292 25.74C64.9092 25.74 64.1692 25.08 64.1692 23.58V17.32H61.3892V24.12C61.3892 26.9 62.9492 28.2 65.0892 28.2C66.4492 28.2 67.6292 27.54 68.2092 26.6V28H70.7492V17.32H67.9892V23.5ZM77.347 28V13.64H74.547V28H77.347ZM83.92 28V23.04L88 28H91.54L86.6 22.44L91.02 17.32H87.82L83.92 21.84V13.64H81.14V28H83.92ZM96.2197 15.02C96.2197 14.42 95.7597 13.98 95.0797 13.98C94.4197 13.98 93.9597 14.42 93.9597 15.02C93.9597 15.64 94.4197 16.08 95.0797 16.08C95.7597 16.08 96.2197 15.64 96.2197 15.02ZM95.7997 28V17.46H94.3997V28H95.7997ZM101.533 21.86C101.533 19.9 102.853 18.48 104.493 18.48C106.213 18.48 107.133 19.62 107.133 21.64V28H108.533V21.16C108.533 18.66 107.113 17.26 104.913 17.26C103.393 17.26 102.113 18.14 101.433 19.44V17.46H100.133V28H101.533V21.86ZM116.761 32.08C119.641 32.08 121.301 30.48 121.301 27.76V17.46H120.001V19.7C119.321 18.16 118.001 17.26 116.421 17.26C113.761 17.26 112.001 19.38 112.001 22.58C112.001 25.78 113.781 27.92 116.441 27.92C118.001 27.92 119.281 27.06 119.921 25.58V27.78C119.921 29.86 118.821 30.96 116.741 30.96C114.861 30.96 113.741 30.04 113.621 28.32H112.281C112.401 30.68 114.081 32.08 116.761 32.08ZM113.401 22.58C113.401 20.02 114.641 18.46 116.641 18.46C118.641 18.46 119.941 20.1 119.941 22.68C119.941 25.12 118.621 26.72 116.641 26.72C114.621 26.72 113.401 25.16 113.401 22.58Z" fill="#064BB4"/>
</svg>
