<svg width="68" height="32" viewBox="0 0 68 32" fill="none" xmlns="http://www.w3.org/2000/svg">
<path fill-rule="evenodd" clip-rule="evenodd" d="M28.3358 14.7394L20.7475 15.0102L27.9526 15.4114L28.3358 14.7394V14.7394ZM27.4281 16.3373L19.8218 16.6085L27.0538 17.0111L27.4281 16.3373V16.3373ZM26.5204 17.9487L18.9237 18.2159L26.1468 18.6182L26.5204 17.9487ZM25.6314 19.5519L18.0251 19.8234L25.2398 20.225L25.6314 19.5519ZM34.9295 6.67384L25.2444 7.01923L34.957 7.56012L34.9295 6.67384ZM34.8681 5.08795L26.1676 5.39375L34.8957 5.89539L34.8681 5.08795V5.08795ZM34.8061 3.55827L27.0541 3.81387L34.8434 4.24728L34.8061 3.55827ZM34.7538 1.98794L27.959 2.2156L34.7807 2.61932L34.7538 1.98794V1.98794ZM34.7097 0.718445H28.8L34.7186 1.03308L34.7097 0.718445V0.718445ZM24.7148 21.1544L17.127 21.4298H24.56L24.7148 21.1544Z" fill="white"/>
<path fill-rule="evenodd" clip-rule="evenodd" d="M50.4308 0.769714H39.4954L39.1853 1.31979L44.6576 1.61074C44.7218 1.61074 44.7218 1.70195 44.6301 1.70195L38.8664 1.89497L38.3105 2.86998L43.7453 3.19168C43.8184 3.20087 43.8004 3.30127 43.7365 3.30127L37.9633 3.49146L37.426 4.42511L42.8521 4.72702C42.9707 4.73621 42.9707 4.83696 42.8521 4.83696L37.0884 5.03953L36.5413 6.01595L41.9494 6.3267C42.0679 6.33589 42.0591 6.44548 41.9494 6.44548L36.1857 6.65123L35.629 7.61563L41.0459 7.91718C41.1277 7.92637 41.1376 8.02713 41.0279 8.02713L24.4202 8.58463L40.1798 9.46206C40.2797 9.46206 40.2708 9.59004 40.1611 9.59004L23.5266 10.1843L39.2862 11.0614C39.3593 11.0614 39.3773 11.1802 39.2675 11.1802L22.6055 11.7833L38.3651 12.6607C38.4293 12.6699 38.4925 12.7887 38.3563 12.7979L21.7207 13.3911L37.48 14.2682C37.5255 14.2774 37.571 14.3961 37.462 14.3961L29.0896 14.6952L29.1171 15.4525L36.5773 15.8678C36.6316 15.877 36.6591 15.9866 36.5586 15.9866L29.1446 16.2507L29.1809 17.0977L35.6565 17.4583C35.72 17.4675 35.7475 17.5955 35.6378 17.5955L29.2173 17.8214L29.2451 18.7508L34.7629 19.058C34.8264 19.0668 34.8448 19.1856 34.7354 19.1856L29.2726 19.3811L29.309 20.4035L33.869 20.6573C33.9332 20.6665 33.9332 20.7765 33.8418 20.7765L29.3273 20.9402L29.3457 21.3796H44.0657C47.9688 21.3796 51.4705 18.5281 52.1273 16.2613C52.7846 13.9949 52.7846 11.9477 49.647 10.9242C51.3985 10.5219 54.444 8.54256 55.0462 5.80596C55.5923 3.31965 54.6807 0.778906 50.4308 0.769714ZM43.0267 16.6428H38.5034L41.0568 12.1096H44.4132C47.8788 12.1096 46.2003 16.6428 43.0267 16.6428V16.6428ZM48.8814 6.91778C48.7354 7.46609 47.6404 8.85542 46.255 8.85542H42.8987L45.0506 5.05367H46.7655C48.9538 5.12685 49.0268 6.36982 48.8814 6.91778V6.91778ZM67.0004 27.9483C67.0004 26.1917 65.5431 24.7203 63.7902 24.7203C61.9917 24.7203 60.5234 26.215 60.5234 28.0512C60.5216 28.4831 60.6052 28.9111 60.7693 29.3105C60.9334 29.7099 61.1748 30.0728 61.4796 30.3782C61.7844 30.6836 62.1465 30.9255 62.5451 31.0899C62.9437 31.2543 63.3708 31.338 63.8018 31.3361C65.1328 31.3361 66.3965 30.4237 66.7722 29.1803H65.1103C64.7801 29.705 64.3483 29.9443 63.7556 29.9443C63.0045 29.9443 62.3335 29.431 62.1169 28.701H66.92C66.9775 28.3478 67.0004 28.1764 67.0004 27.9483ZM62.0718 27.5086C62.288 26.653 62.971 26.1054 63.8131 26.1054C64.6559 26.1054 65.3159 26.6417 65.5205 27.5086H62.0718ZM45.4225 25.0247V25.537C44.9448 25.0237 44.2526 24.7317 43.5125 24.7317C41.8735 24.7317 40.4762 26.1344 40.4762 27.9596C40.4762 29.6816 41.7123 31.2262 43.545 31.2262C44.3532 31.2262 44.9677 31.0392 45.548 30.3777V31.1876H46.9373V25.0247H45.4225V25.0247ZM43.7259 29.9199C43.2197 29.9199 42.7342 29.7184 42.3763 29.3597C42.0183 29.001 41.8172 28.5145 41.8172 28.0072C41.8172 27.4999 42.0183 27.0134 42.3763 26.6547C42.7342 26.296 43.2197 26.0945 43.7259 26.0945C44.2322 26.0945 44.7177 26.296 45.0756 26.6547C45.4336 27.0134 45.6346 27.4999 45.6346 28.0072C45.6346 28.5145 45.4336 29.001 45.0756 29.3597C44.7177 29.7184 44.2322 29.9199 43.7259 29.9199V29.9199ZM4.02789 24.72C3.40206 24.72 2.92405 24.9367 2.40017 25.473V24.8685H1V31.1876H2.51412V28.2103C2.51412 27.4007 2.58221 26.1114 3.69769 26.1114C4.74473 26.1114 4.85868 27.3205 4.85868 28.0961V31.1873H6.37245V27.7995C6.37245 26.9097 6.30436 26.4879 6.06518 25.9859C5.7124 25.2333 4.88161 24.72 4.02789 24.72V24.72ZM13.4344 27.9483C13.4344 26.1917 11.9774 24.7203 10.2244 24.7203C8.42597 24.7203 6.95771 26.215 6.95771 28.0512C6.95593 28.4831 7.03951 28.911 7.20362 29.3104C7.36773 29.7097 7.60911 30.0726 7.91386 30.378C8.2186 30.6833 8.58067 30.9252 8.97918 31.0897C9.37769 31.2541 9.80475 31.3379 10.2357 31.3361C11.5675 31.3361 12.8307 30.4237 13.2065 29.1803H11.5449C11.2147 29.705 10.7822 29.9443 10.1902 29.9443C9.43914 29.9443 8.76746 29.431 8.5512 28.701H13.3543C13.4118 28.3478 13.4344 28.1764 13.4344 27.9483V27.9483ZM8.50605 27.5086C8.7223 26.653 9.40528 26.1054 10.2477 26.1054C11.0901 26.1054 11.7502 26.6417 11.9552 27.5086H8.50605ZM38.3422 31.1823H39.856V22.753H38.3422V31.1823ZM50.9311 24.72C50.3049 24.72 49.8265 24.9367 49.303 25.473V24.8685H47.9028V31.1876H49.4173V28.2103C49.4173 27.4007 49.4854 26.1114 50.6009 26.1114C51.6476 26.1114 51.7619 27.3205 51.7619 28.0961V31.1873H53.2756V27.7995C53.2756 26.9097 53.2075 26.4879 52.9684 25.9859C52.6156 25.2333 51.7848 24.72 50.9311 24.72V24.72ZM57.0546 26.1118C57.7485 26.1118 58.1468 26.3402 58.5228 26.9786H60.2296C59.7632 25.6215 58.5684 24.72 57.111 24.72C55.2671 24.72 53.7872 26.1913 53.7872 28.0052C53.7872 29.8301 55.2784 31.3358 57.111 31.3358C57.5785 31.3333 58.0403 31.2337 58.4674 31.0432C58.8944 30.8528 59.2774 30.5756 59.5921 30.2292C59.911 29.8757 60.025 29.6703 60.2296 29.1118H58.5228C58.1694 29.659 57.7146 29.944 57.1456 29.944C56.0866 29.944 55.3016 29.1227 55.3016 28.0275C55.3016 26.9217 56.0527 26.1118 57.0546 26.1118V26.1118ZM19.2206 28.724L18.1485 24.8688H16.9304L15.8466 28.724L14.565 24.8688H13.2294L15.3348 31.1876H16.3045L17.534 27.0932L18.7288 31.1876H19.7466L21.7655 24.8688H20.5139L19.2206 28.724V28.724ZM27.3313 24.7267C26.5915 24.7267 25.8994 25.0187 25.4214 25.5317V22.7534H23.9073V31.1823H25.2958V30.3728C25.8765 31.0342 26.491 31.2209 27.2992 31.2209C29.1319 31.2209 30.368 29.6767 30.368 27.9543C30.3684 26.1295 28.9707 24.7267 27.3313 24.7267V24.7267ZM27.1179 29.9199C26.6117 29.9199 26.1262 29.7184 25.7682 29.3597C25.4103 29.001 25.2092 28.5145 25.2092 28.0072C25.2092 27.4999 25.4103 27.0134 25.7682 26.6547C26.1262 26.296 26.6117 26.0945 27.1179 26.0945C27.6241 26.0945 28.1096 26.296 28.4675 26.6547C28.8255 27.0134 29.0266 27.4999 29.0266 28.0072C29.0266 28.5145 28.8255 29.001 28.4675 29.3597C28.1096 29.7184 27.6241 29.9199 27.1179 29.9199V29.9199ZM35.8167 25.0247V25.537C35.3387 25.0237 34.6469 24.7317 33.9067 24.7317C32.2677 24.7317 30.8697 26.1344 30.8697 27.9596C30.8697 29.6816 32.1062 31.2262 33.9385 31.2262C34.7467 31.2262 35.3612 31.0392 35.9419 30.3777V31.1876H37.3304V25.0247H35.8167V25.0247ZM34.1205 29.9199C33.6143 29.9199 33.1288 29.7184 32.7709 29.3597C32.4129 29.001 32.2118 28.5145 32.2118 28.0072C32.2118 27.4999 32.4129 27.0134 32.7709 26.6547C33.1288 26.296 33.6143 26.0945 34.1205 26.0945C34.6267 26.0945 35.1122 26.296 35.4702 26.6547C35.8281 27.0134 36.0292 27.4999 36.0292 28.0072C36.0292 28.5145 35.8281 29.001 35.4702 29.3597C35.1122 29.7184 34.6267 29.9199 34.1205 29.9199V29.9199Z" fill="white"/>
</svg>
