<svg width="18" height="18" viewBox="0 0 18 18" fill="none" xmlns="http://www.w3.org/2000/svg">
<path d="M9.00033 0.666656C4.40033 0.666656 0.666992 4.39999 0.666992 8.99999C0.666992 13.6 4.40033 17.3333 9.00033 17.3333C13.6003 17.3333 17.3337 13.6 17.3337 8.99999C17.3337 4.39999 13.6003 0.666656 9.00033 0.666656ZM12.3587 9.44166L9.85866 11.9417C9.73366 12.0667 9.57533 12.125 9.41699 12.125C9.25866 12.125 9.10033 12.0667 8.97533 11.9417C8.73366 11.7 8.73366 11.3 8.97533 11.0583L10.4087 9.62499H6.08366C5.74199 9.62499 5.45866 9.34166 5.45866 8.99999C5.45866 8.65832 5.74199 8.37499 6.08366 8.37499H10.4087L8.97533 6.94166C8.73366 6.69999 8.73366 6.29999 8.97533 6.05832C9.21699 5.81666 9.61699 5.81666 9.85866 6.05832L12.3587 8.55832C12.6003 8.79999 12.6003 9.19999 12.3587 9.44166Z" fill="#064BB4"/>
</svg>
