<svg width="62" height="23" viewBox="0 0 62 23" fill="none" xmlns="http://www.w3.org/2000/svg">
<path fill-rule="evenodd" clip-rule="evenodd" d="M8.72932 1.02071C4.76264 5.7147 0.959345 11.5357 0.921208 15.8866C0.906355 17.5237 1.42502 18.9529 2.6691 20.0353C4.45955 21.5943 6.43225 22.1441 8.39531 22.1473C11.264 22.1514 14.1127 20.9851 16.3431 20.0859C20.0994 18.5722 61.6221 0.402607 61.6221 0.402607C62.0228 0.20035 61.9477 -0.0516616 61.4463 0.0741426C61.244 0.125112 16.2424 12.4139 16.2424 12.4139C15.3899 12.6568 14.5091 12.7839 13.6233 12.7917C10.1649 12.8123 7.08741 10.8779 7.11229 6.80163C7.12193 5.20663 7.60647 3.28316 8.72932 1.02071Z" fill="white"/>
</svg>
